<svg width="38" height="39" viewBox="0 0 38 39" fill="none" xmlns="http://www.w3.org/2000/svg">
<g clip-path="url(#clip0_83_3213)">
<path d="M25.6339 17.8332C25.7438 17.9429 25.8311 18.0732 25.8906 18.2167C25.9501 18.3601 25.9808 18.5139 25.9808 18.6692C25.9808 18.8246 25.9501 18.9784 25.8906 19.1218C25.8311 19.2653 25.7438 19.3956 25.6339 19.5053L18.549 26.5901C18.4393 26.7001 18.309 26.7873 18.1656 26.8468C18.0221 26.9064 17.8683 26.937 17.713 26.937C17.5577 26.937 17.4039 26.9064 17.2604 26.8468C17.117 26.7873 16.9867 26.7001 16.877 26.5901L13.3346 23.0477C13.2248 22.9379 13.1377 22.8076 13.0783 22.6641C13.0189 22.5207 12.9883 22.3669 12.9883 22.2117C12.9883 22.0564 13.0189 21.9027 13.0783 21.7592C13.1377 21.6158 13.2248 21.4854 13.3346 21.3757C13.5563 21.1539 13.857 21.0294 14.1706 21.0294C14.3258 21.0294 14.4796 21.0599 14.623 21.1194C14.7665 21.1788 14.8968 21.2659 15.0066 21.3757L17.713 24.0844L23.9618 17.8332C24.0715 17.7233 24.2018 17.636 24.3453 17.5765C24.4887 17.517 24.6425 17.4863 24.7978 17.4863C24.9532 17.4863 25.107 17.517 25.2504 17.5765C25.3939 17.636 25.5242 17.7233 25.6339 17.8332Z" fill="#8E44AD"/>
<path d="M8.26761 0.957031C8.58078 0.957031 8.88112 1.08144 9.10256 1.30288C9.32401 1.52433 9.44841 1.82467 9.44841 2.13784V3.31865H28.3413V2.13784C28.3413 1.82467 28.4657 1.52433 28.6872 1.30288C28.9086 1.08144 29.209 0.957031 29.5221 0.957031C29.8353 0.957031 30.1357 1.08144 30.3571 1.30288C30.5785 1.52433 30.7029 1.82467 30.7029 2.13784V3.31865H33.0646C34.3172 3.31865 35.5186 3.81627 36.4044 4.70205C37.2902 5.58783 37.7878 6.7892 37.7878 8.04188V34.0196C37.7878 35.2723 37.2902 36.4737 36.4044 37.3595C35.5186 38.2452 34.3172 38.7429 33.0646 38.7429H4.72518C3.4725 38.7429 2.27113 38.2452 1.38536 37.3595C0.499578 36.4737 0.00195313 35.2723 0.00195312 34.0196V8.04188C0.00195313 6.7892 0.499578 5.58783 1.38536 4.70205C2.27113 3.81627 3.4725 3.31865 4.72518 3.31865H7.0868V2.13784C7.0868 1.82467 7.21121 1.52433 7.43265 1.30288C7.65409 1.08144 7.95444 0.957031 8.26761 0.957031V0.957031ZM2.36357 10.4035V34.0196C2.36357 34.646 2.61238 35.2467 3.05527 35.6896C3.49816 36.1324 4.09884 36.3813 4.72518 36.3813H33.0646C33.6909 36.3813 34.2916 36.1324 34.7345 35.6896C35.1774 35.2467 35.4262 34.646 35.4262 34.0196V10.4035H2.36357Z" fill="#8E44AD"/>
</g>
<defs>
<clipPath id="clip0_83_3213">
<rect y="0.956055" width="37.7858" height="37.7858" rx="5.24803" fill="white"/>
</clipPath>
</defs>
</svg>
