<svg width="35" height="35" viewBox="0 0 35 35" fill="none" xmlns="http://www.w3.org/2000/svg">
<path d="M19.1575 4.20295V0.676758H15.7489V4.20295C12.7498 4.58588 9.9627 5.95356 7.82483 8.09143C5.68696 10.2293 4.31928 13.0164 3.93635 16.0155H0.410156V19.4241H3.93635C4.31872 22.4233 5.68622 25.2107 7.82419 27.3487C9.96217 29.4867 12.7496 30.8542 15.7489 31.2366V34.7628H19.1575V31.2366C22.1568 30.8545 24.9444 29.4871 27.0824 27.349C29.2205 25.211 30.5879 22.4234 30.97 19.4241H34.4962V16.0155H30.97C30.5876 13.0162 29.2201 10.2288 27.0821 8.0908C24.9441 5.95282 22.1567 4.58532 19.1575 4.20295ZM17.4532 27.9456C11.8136 27.9456 7.22736 23.3593 7.22736 17.7198C7.22736 12.0802 11.8136 7.49396 17.4532 7.49396C23.0927 7.49396 27.679 12.0802 27.679 17.7198C27.679 23.3593 23.0927 27.9456 17.4532 27.9456Z" fill="black"/>
</svg>
