<svg width="92" height="92" viewBox="0 0 92 92" fill="none" xmlns="http://www.w3.org/2000/svg">
<path d="M64.242 27.759V25.428C59.112 29.24 58.839 32.902 57.477 34.855C55.064 38.315 52.912 37.865 52.508 36.611C51.883 34.668 52.725 29.56 50.929 29.563C43.838 29.575 38.187 29.883 33.647 38.602C29.107 47.321 25.892 43.763 25.892 43.763C25.892 43.763 31.72 29.508 36.093 24.692C39.388 21.063 47.379 19.862 53.981 18.335C57.886 17.432 61.282 16.039 64.242 14.48V0H27.759V27.758H0V64.241H27.758V68.735C33.281 64.818 33.536 61.017 34.933 59.014C37.346 55.554 39.498 56.004 39.902 57.258C40.527 59.2 39.685 64.309 41.481 64.306C48.572 64.294 54.223 63.986 58.763 55.267C63.303 46.548 66.518 50.106 66.518 50.106C66.518 50.106 60.69 64.361 56.317 69.177C53.022 72.806 45.031 74.007 38.429 75.534C34.339 76.48 30.815 77.964 27.758 79.613V92.001H64.241V64.243H92V27.76H64.242V27.759ZM46 55.203C40.35 53.313 36.728 48.452 37.468 44.36C37.959 41.643 40.522 40.104 42.82 40.899C45.108 41.69 46 43.229 46 43.229C46 43.229 46.892 41.691 49.18 40.899C51.478 40.104 54.041 41.643 54.532 44.36C55.272 48.452 51.65 53.313 46 55.203Z" fill="url(#paint0_linear_104_977)"/>
<defs>
<linearGradient id="paint0_linear_104_977" x1="13.8792" y1="78.1217" x2="78.1208" y2="13.8801" gradientUnits="userSpaceOnUse">
<stop stop-color="#812DA4"/>
<stop offset="0.0737" stop-color="#8E44AD"/>
<stop offset="0.2766" stop-color="#8E44AD"/>
<stop offset="0.4546" stop-color="#7E379B"/>
<stop offset="0.587" stop-color="#752398"/>
</linearGradient>
</defs>
</svg>
