<svg width="29" height="30" viewBox="0 0 29 30" fill="none" xmlns="http://www.w3.org/2000/svg">
<path d="M11.9678 9.51465L4.30859 17.6436L5.58008 19.2822L11.8623 15.8076L14.9326 18.9971L15.6963 19.791L16.4521 18.9893L24.1133 10.8604L22.8418 9.22168L16.5576 12.6963L13.4883 9.50684L12.7236 8.71289L11.9678 9.51465ZM6.44629 23.4756L6.0293 23.1611C3.08681 20.9368 1.23346 17.5577 1.2334 13.7979C1.2334 7.19589 6.97789 1.72949 14.2119 1.72949C21.4457 1.72966 27.1899 7.19578 27.1914 13.7979L27.1875 14.1064C27.0117 20.5662 21.3338 25.8643 14.2129 25.8643C12.9068 25.8642 11.6533 25.6855 10.4688 25.3525L10.0527 25.2354L9.6748 25.4453L6.44629 27.2363V23.4756Z" stroke="#8E44AD" stroke-width="2.09921"/>
</svg>
