<svg width="25" height="32" viewBox="0 0 25 32" fill="none" xmlns="http://www.w3.org/2000/svg">
<path d="M2.92904 9.37307C2.47915 6.40688 4.5739 3.7359 7.77389 2.75583C8.34206 2.58193 8.95517 2.63134 9.48816 2.89399C10.0211 3.15665 10.4338 3.61275 10.6421 4.16925L11.6682 6.90873C11.8332 7.34939 11.8628 7.82929 11.7531 8.28688C11.6435 8.74448 11.3997 9.15889 11.053 9.47698L8.0006 12.2767C7.85007 12.415 7.73789 12.5899 7.67499 12.7844C7.61208 12.9789 7.60059 13.1864 7.64164 13.3866L7.6688 13.5094L7.74437 13.8176C7.81168 14.0774 7.91322 14.4435 8.0561 14.8804C8.3395 15.7483 8.79175 16.9149 9.46481 18.0803C10.1379 19.2458 10.9219 20.2212 11.5312 20.9001C11.8485 21.2536 12.1802 21.594 12.5255 21.9203L12.6199 22.0077C12.7726 22.1429 12.9577 22.2363 13.1572 22.2787C13.3567 22.3211 13.5637 22.3112 13.7582 22.2498L17.7092 21.0064C18.1581 20.8653 18.6389 20.8615 19.09 20.9955C19.5411 21.1295 19.9418 21.3952 20.2409 21.7586L22.1101 24.0281C22.8894 24.9727 22.7973 26.3613 21.9011 27.1962C19.4521 29.4787 16.0844 29.9475 13.7417 28.0629C10.8701 25.7469 8.44932 22.9222 6.60017 19.7299C4.73574 16.5398 3.49022 13.0264 2.92904 9.37425V9.37307ZM10.1154 13.5413L12.6494 11.2175C13.3429 10.5813 13.8305 9.75248 14.0497 8.8373C14.269 7.92212 14.2098 6.96231 13.8798 6.08098L12.8525 3.34151C12.4334 2.22225 11.6033 1.30496 10.5312 0.776629C9.45921 0.248294 8.22604 0.148691 7.08312 0.498121C3.1097 1.71435 -0.0808429 5.27685 0.594579 9.72731C1.20033 13.6736 2.54517 17.4702 4.55855 20.9178C6.55302 24.3603 9.16397 27.4063 12.261 29.9038C15.7739 32.7259 20.4664 31.7635 23.5117 28.9237C24.3831 28.1116 24.9118 26.9976 24.9901 25.809C25.0685 24.6205 24.6905 23.4468 23.9332 22.5273L22.064 20.2578C21.4659 19.5309 20.6642 18.9993 19.7618 18.7313C18.8594 18.4632 17.8975 18.4709 16.9995 18.7534L13.7204 19.7854C13.5737 19.6345 13.43 19.4805 13.2894 19.3237C12.6155 18.5782 12.0193 17.7659 11.51 16.8995C11.0141 16.0251 10.6086 15.1025 10.2996 14.1459C10.2341 13.9456 10.1727 13.7441 10.1154 13.5413Z" fill="#8E44AD"/>
</svg>
